<svg id="Layer_1" data-name="Layer 1" xmlns="http://www.w3.org/2000/svg" xmlns:xlink="http://www.w3.org/1999/xlink" viewBox="0 0 700 260"><defs><style>.cls-1{fill:#252525;}.cls-2{fill:url(#linear-gradient);}.cls-3{fill:url(#linear-gradient-2);}.cls-4{fill:url(#linear-gradient-3);}</style><linearGradient id="linear-gradient" x1="17.53" y1="210.01" x2="190.52" y2="101.92" gradientUnits="userSpaceOnUse"><stop offset="0.13" stop-color="#c7d4fd"/><stop offset="0.22" stop-color="#b9c9fd"/><stop offset="0.39" stop-color="#94adfb"/><stop offset="0.62" stop-color="#597ffa"/><stop offset="0.68" stop-color="#4872f9"/><stop offset="0.73" stop-color="#4a67e7"/><stop offset="0.84" stop-color="#504bb7"/><stop offset="0.98" stop-color="#5a1e6b"/><stop offset="1" stop-color="#5b1861"/></linearGradient><linearGradient id="linear-gradient-2" x1="147.44" y1="232.99" x2="233.93" y2="178.94" gradientUnits="userSpaceOnUse"><stop offset="0.13" stop-color="#c7d4fd"/><stop offset="0.24" stop-color="#b9c9fd"/><stop offset="0.43" stop-color="#94adfb"/><stop offset="0.69" stop-color="#597ffa"/><stop offset="0.75" stop-color="#4872f9"/><stop offset="0.79" stop-color="#4a67e7"/><stop offset="0.87" stop-color="#504bb7"/><stop offset="0.99" stop-color="#5a1e6b"/><stop offset="1" stop-color="#5b1861"/></linearGradient><linearGradient id="linear-gradient-3" x1="147.44" y1="27.01" x2="233.93" y2="81.06" gradientUnits="userSpaceOnUse"><stop offset="0.11" stop-color="#c7d4fd"/><stop offset="0.24" stop-color="#c1d0fd"/><stop offset="0.41" stop-color="#b1c3fc"/><stop offset="0.6" stop-color="#96aefb"/><stop offset="0.81" stop-color="#7192fa"/><stop offset="1" stop-color="#4872f9"/></linearGradient></defs><title>01_FullColor</title><path class="cls-1" d="M545,230H531.24l-23.36-62.4h-94.4L390.12,230H376.68L453.16,30H469.8ZM461.16,41.84l-42.88,113.6h84.8Z"/><path class="cls-1" d="M663.4,230l-42.56-66.24L578,230H563.24l50.88-75.52-47.36-71h14.4l39.68,61.44,39.68-61.44H674.6l-47,70.4L678.44,230Z"/><polygon class="cls-2" points="145.58 30 203.35 130 145.58 230 30.02 230 145.58 30"/><polygon class="cls-3" points="261.13 230 145.58 230 203.35 130 261.13 230"/><polygon class="cls-4" points="261.13 30 145.58 30 203.35 130 261.13 30"/></svg>