<svg data-name="Layer 1" xmlns="http://www.w3.org/2000/svg" viewBox="0 0 700 260"><defs><linearGradient id="a" x1="17.53" y1="210.01" x2="190.52" y2="101.92" gradientUnits="userSpaceOnUse"><stop offset=".13" stop-color="#c7d4fd"/><stop offset=".22" stop-color="#b9c9fd"/><stop offset=".39" stop-color="#94adfb"/><stop offset=".62" stop-color="#597ffa"/><stop offset=".68" stop-color="#4872f9"/><stop offset=".73" stop-color="#4a67e7"/><stop offset=".84" stop-color="#504bb7"/><stop offset=".98" stop-color="#5a1e6b"/><stop offset="1" stop-color="#5b1861"/></linearGradient><linearGradient id="b" x1="147.44" y1="232.99" x2="233.93" y2="178.94" gradientUnits="userSpaceOnUse"><stop offset=".13" stop-color="#c7d4fd"/><stop offset=".24" stop-color="#b9c9fd"/><stop offset=".43" stop-color="#94adfb"/><stop offset=".69" stop-color="#597ffa"/><stop offset=".75" stop-color="#4872f9"/><stop offset=".79" stop-color="#4a67e7"/><stop offset=".87" stop-color="#504bb7"/><stop offset=".99" stop-color="#5a1e6b"/><stop offset="1" stop-color="#5b1861"/></linearGradient><linearGradient id="c" x1="147.44" y1="27.01" x2="233.93" y2="81.06" gradientUnits="userSpaceOnUse"><stop offset=".11" stop-color="#c7d4fd"/><stop offset=".24" stop-color="#c1d0fd"/><stop offset=".41" stop-color="#b1c3fc"/><stop offset=".6" stop-color="#96aefb"/><stop offset=".81" stop-color="#7192fa"/><stop offset="1" stop-color="#4872f9"/></linearGradient></defs><path d="M545 230h-13.76l-23.36-62.4h-94.4L390.12 230h-13.44l76.48-200h16.64zM461.16 41.84l-42.88 113.6h84.8zM663.4 230l-42.56-66.24L578 230h-14.76l50.88-75.52-47.36-71h14.4l39.68 61.44 39.68-61.44h14.08l-47 70.4L678.44 230z" fill="#fff"/><path fill="url(#a)" d="M145.58 30l57.77 100-57.77 100H30.02L145.58 30z"/><path fill="url(#b)" d="M261.13 230H145.58l57.77-100 57.78 100z"/><path fill="url(#c)" d="M261.13 30H145.58l57.77 100 57.78-100z"/></svg>