<?xml version="1.0" encoding="utf-8"?>
<!-- Generator: Adobe Illustrator 23.0.3, SVG Export Plug-In . SVG Version: 6.00 Build 0)  -->
<svg version="1.1" id="Layer_1" focusable="false" xmlns="http://www.w3.org/2000/svg" xmlns:xlink="http://www.w3.org/1999/xlink"
	 x="0px" y="0px" viewBox="0 0 448 512" style="enable-background:new 0 0 448 512;" xml:space="preserve">
<style type="text/css">
	.st0{fill:#4872F9;}
</style>
<path class="st0" d="M448,73.1v45.7c0,40.3-100.3,73.1-224,73.1S0,159.1,0,118.9V73.1C0,32.9,100.3,0,224,0S448,32.9,448,73.1z
	 M448,176v102.9c0,40.3-100.3,73.1-224,73.1S0,319.1,0,278.9V176c48.1,33.1,136.2,48.6,224,48.6S399.9,209.1,448,176z M448,336
	v102.9c0,40.3-100.3,73.1-224,73.1S0,479.1,0,438.9V336c48.1,33.1,136.2,48.6,224,48.6S399.9,369.1,448,336z"/>
</svg>
