<svg xmlns="http://www.w3.org/2000/svg" viewBox="0 0 512 512"><path d="M296 32h192c13.3 0 24 10.7 24 24v160c0 13.3-10.7 24-24 24H296c-13.3 0-24-10.7-24-24V56c0-13.3 10.7-24 24-24zm-80 0H24C10.7 32 0 42.7 0 56v160c0 13.3 10.7 24 24 24h192c13.3 0 24-10.7 24-24V56c0-13.3-10.7-24-24-24zM0 296v160c0 13.3 10.7 24 24 24h192c13.3 0 24-10.7 24-24V296c0-13.3-10.7-24-24-24H24c-13.3 0-24 10.7-24 24zm296 184h192c13.3 0 24-10.7 24-24V296c0-13.3-10.7-24-24-24H296c-13.3 0-24 10.7-24 24v160c0 13.3 10.7 24 24 24z" fill="#4872f9"/></svg>