<svg xmlns="http://www.w3.org/2000/svg" viewBox="0 0 640 512"><path d="M592 192H473.3c12.7 29.6 7.1 65.2-17 89.3L320 417.6V464c0 26.5 21.5 48 48 48h224c26.5 0 48-21.5 48-48V240c0-26.5-21.5-48-48-48zM480 376c-13.2 0-24-10.8-24-24 0-13.3 10.8-24 24-24s24 10.7 24 24c0 13.2-10.8 24-24 24zm-46.4-186.7L258.7 14.4c-19.2-19.2-50.2-19.2-69.4 0L14.4 189.3c-19.2 19.2-19.2 50.2 0 69.4l174.9 174.9c19.2 19.2 50.2 19.2 69.4 0l174.9-174.9c19.2-19.2 19.2-50.2 0-69.4zM96 248c-13.2 0-24-10.8-24-24 0-13.3 10.8-24 24-24s24 10.7 24 24c0 13.2-10.8 24-24 24zm128 128c-13.2 0-24-10.8-24-24 0-13.3 10.8-24 24-24s24 10.7 24 24c0 13.2-10.8 24-24 24zm0-128c-13.2 0-24-10.8-24-24 0-13.3 10.8-24 24-24s24 10.7 24 24c0 13.2-10.8 24-24 24zm0-128c-13.2 0-24-10.8-24-24 0-13.3 10.8-24 24-24s24 10.7 24 24c0 13.2-10.8 24-24 24zm128 128c-13.2 0-24-10.8-24-24 0-13.3 10.8-24 24-24s24 10.7 24 24c0 13.2-10.8 24-24 24z" fill="#4872f9"/></svg>